# xmcd CD database file
#
# Track frame offsets:
#	150
#	31330
#	50767
#	68950
#	88302
#	111485
#	126567
#	144240
#	171677
#	207895
#	224427
#	238040
#	281952
#	303310
#	314210
#
# Disc length: 4488 seconds
#
# Revision: 0
# Processed by: cddbd v1.4PL0 Copyright (c) Steve Scherf et al.
# Submitted via: CDex 1.50Beta5
#
DISCID=0111860f
DTITLE=Nick Brignola and Sal Salvador - A Tribute to Gerry Mulligan
DYEAR=1983
DGENRE=Jazz
TTITLE0=Bernie's Tune
TTITLE1=Five Brothers
TTITLE2=Song for Strayhorn
TTITLE3=Elevation
TTITLE4=Walkin' Shoes
TTITLE5=Lime Light
TTITLE6=Walk on the Water
TTITLE7=Line for Lyons
TTITLE8=I'm Afraid The Masquerade Is Over
TTITLE9=Breezeway
TTITLE10=Anthropology
TTITLE11=Blue Monk
TTITLE12=Parallelogram
TTITLE13=Mr. P.C.
TTITLE14=Over The Rainbow
EXTD=YEAR: 1983
EXTT0=
EXTT1=
EXTT2=
EXTT3=
EXTT4=
EXTT5=
EXTT6=
EXTT7=
EXTT8=
EXTT9=
EXTT10=
EXTT11=
EXTT12=
EXTT13=
EXTT14=
PLAYORDER=
